<mxfile host="app.diagrams.net" modified="2020-09-23T16:05:46.212Z" agent="5.0 (Windows)" etag="0qwY5TXC9AgwlZe3NVUM" version="13.7.5" type="github">
  <diagram id="PUsS3JAXmnJraTE7XrD2" name="Page-1">
    <mxGraphModel dx="2249" dy="755" grid="1" gridSize="10" guides="1" tooltips="1" connect="1" arrows="1" fold="1" page="1" pageScale="1" pageWidth="827" pageHeight="1169" math="0" shadow="0">
      <root>
        <mxCell id="0" />
        <mxCell id="1" parent="0" />
        <mxCell id="S2je8SEkCSBR-PHmFtPQ-40" value="PILOT" style="shape=table;startSize=30;container=1;collapsible=1;childLayout=tableLayout;fixedRows=1;rowLines=0;fontStyle=1;align=center;resizeLast=1;" vertex="1" parent="1">
          <mxGeometry x="100" y="350" width="180" height="160" as="geometry" />
        </mxCell>
        <mxCell id="S2je8SEkCSBR-PHmFtPQ-41" value="" style="shape=partialRectangle;collapsible=0;dropTarget=0;pointerEvents=0;fillColor=none;top=0;left=0;bottom=1;right=0;points=[[0,0.5],[1,0.5]];portConstraint=eastwest;" vertex="1" parent="S2je8SEkCSBR-PHmFtPQ-40">
          <mxGeometry y="30" width="180" height="30" as="geometry" />
        </mxCell>
        <mxCell id="S2je8SEkCSBR-PHmFtPQ-42" value="PK" style="shape=partialRectangle;connectable=0;fillColor=none;top=0;left=0;bottom=0;right=0;fontStyle=1;overflow=hidden;" vertex="1" parent="S2je8SEkCSBR-PHmFtPQ-41">
          <mxGeometry width="30" height="30" as="geometry" />
        </mxCell>
        <mxCell id="S2je8SEkCSBR-PHmFtPQ-43" value="IDp" style="shape=partialRectangle;connectable=0;fillColor=none;top=0;left=0;bottom=0;right=0;align=left;spacingLeft=6;fontStyle=5;overflow=hidden;" vertex="1" parent="S2je8SEkCSBR-PHmFtPQ-41">
          <mxGeometry x="30" width="150" height="30" as="geometry" />
        </mxCell>
        <mxCell id="S2je8SEkCSBR-PHmFtPQ-44" value="" style="shape=partialRectangle;collapsible=0;dropTarget=0;pointerEvents=0;fillColor=none;top=0;left=0;bottom=0;right=0;points=[[0,0.5],[1,0.5]];portConstraint=eastwest;" vertex="1" parent="S2je8SEkCSBR-PHmFtPQ-40">
          <mxGeometry y="60" width="180" height="30" as="geometry" />
        </mxCell>
        <mxCell id="S2je8SEkCSBR-PHmFtPQ-45" value="" style="shape=partialRectangle;connectable=0;fillColor=none;top=0;left=0;bottom=0;right=0;editable=1;overflow=hidden;" vertex="1" parent="S2je8SEkCSBR-PHmFtPQ-44">
          <mxGeometry width="30" height="30" as="geometry" />
        </mxCell>
        <mxCell id="S2je8SEkCSBR-PHmFtPQ-46" value="imie" style="shape=partialRectangle;connectable=0;fillColor=none;top=0;left=0;bottom=0;right=0;align=left;spacingLeft=6;overflow=hidden;" vertex="1" parent="S2je8SEkCSBR-PHmFtPQ-44">
          <mxGeometry x="30" width="150" height="30" as="geometry" />
        </mxCell>
        <mxCell id="S2je8SEkCSBR-PHmFtPQ-47" value="" style="shape=partialRectangle;collapsible=0;dropTarget=0;pointerEvents=0;fillColor=none;top=0;left=0;bottom=0;right=0;points=[[0,0.5],[1,0.5]];portConstraint=eastwest;" vertex="1" parent="S2je8SEkCSBR-PHmFtPQ-40">
          <mxGeometry y="90" width="180" height="30" as="geometry" />
        </mxCell>
        <mxCell id="S2je8SEkCSBR-PHmFtPQ-48" value="" style="shape=partialRectangle;connectable=0;fillColor=none;top=0;left=0;bottom=0;right=0;editable=1;overflow=hidden;" vertex="1" parent="S2je8SEkCSBR-PHmFtPQ-47">
          <mxGeometry width="30" height="30" as="geometry" />
        </mxCell>
        <mxCell id="S2je8SEkCSBR-PHmFtPQ-49" value="nazwisko" style="shape=partialRectangle;connectable=0;fillColor=none;top=0;left=0;bottom=0;right=0;align=left;spacingLeft=6;overflow=hidden;" vertex="1" parent="S2je8SEkCSBR-PHmFtPQ-47">
          <mxGeometry x="30" width="150" height="30" as="geometry" />
        </mxCell>
        <mxCell id="S2je8SEkCSBR-PHmFtPQ-50" value="" style="shape=partialRectangle;collapsible=0;dropTarget=0;pointerEvents=0;fillColor=none;top=0;left=0;bottom=0;right=0;points=[[0,0.5],[1,0.5]];portConstraint=eastwest;" vertex="1" parent="S2je8SEkCSBR-PHmFtPQ-40">
          <mxGeometry y="120" width="180" height="30" as="geometry" />
        </mxCell>
        <mxCell id="S2je8SEkCSBR-PHmFtPQ-51" value="" style="shape=partialRectangle;connectable=0;fillColor=none;top=0;left=0;bottom=0;right=0;editable=1;overflow=hidden;" vertex="1" parent="S2je8SEkCSBR-PHmFtPQ-50">
          <mxGeometry width="30" height="30" as="geometry" />
        </mxCell>
        <mxCell id="S2je8SEkCSBR-PHmFtPQ-52" value="stopieÅ„" style="shape=partialRectangle;connectable=0;fillColor=none;top=0;left=0;bottom=0;right=0;align=left;spacingLeft=6;overflow=hidden;" vertex="1" parent="S2je8SEkCSBR-PHmFtPQ-50">
          <mxGeometry x="30" width="150" height="30" as="geometry" />
        </mxCell>
        <mxCell id="S2je8SEkCSBR-PHmFtPQ-79" value="" style="edgeStyle=elbowEdgeStyle;fontSize=12;html=1;endArrow=ERoneToMany;startArrow=ERmandOne;exitX=0.75;exitY=1;exitDx=0;exitDy=0;entryX=0.5;entryY=0;entryDx=0;entryDy=0;elbow=vertical;startFill=0;" edge="1" parent="1" source="S2je8SEkCSBR-PHmFtPQ-53" target="S2je8SEkCSBR-PHmFtPQ-14">
          <mxGeometry width="100" height="100" relative="1" as="geometry">
            <mxPoint x="510" y="360" as="sourcePoint" />
            <mxPoint x="610" y="260" as="targetPoint" />
          </mxGeometry>
        </mxCell>
        <mxCell id="S2je8SEkCSBR-PHmFtPQ-80" value="" style="edgeStyle=elbowEdgeStyle;fontSize=12;html=1;endArrow=ERoneToMany;startArrow=ERmandOne;entryX=1;entryY=0.5;entryDx=0;entryDy=0;exitX=0;exitY=0.5;exitDx=0;exitDy=0;" edge="1" parent="1" source="S2je8SEkCSBR-PHmFtPQ-57" target="S2je8SEkCSBR-PHmFtPQ-44">
          <mxGeometry width="100" height="100" relative="1" as="geometry">
            <mxPoint x="360" y="440" as="sourcePoint" />
            <mxPoint x="460" y="340" as="targetPoint" />
          </mxGeometry>
        </mxCell>
        <mxCell id="S2je8SEkCSBR-PHmFtPQ-83" value="" style="edgeStyle=elbowEdgeStyle;fontSize=12;html=1;endArrow=ERmandOne;startArrow=ERoneToMany;exitX=1;exitY=0.5;exitDx=0;exitDy=0;entryX=0;entryY=0.5;entryDx=0;entryDy=0;startFill=0;endFill=0;" edge="1" parent="1">
          <mxGeometry width="100" height="100" relative="1" as="geometry">
            <mxPoint x="-50" y="205" as="sourcePoint" />
            <mxPoint x="300" y="155" as="targetPoint" />
            <Array as="points">
              <mxPoint y="180" />
              <mxPoint x="400" y="460" />
              <mxPoint x="400" y="230" />
            </Array>
          </mxGeometry>
        </mxCell>
        <mxCell id="S2je8SEkCSBR-PHmFtPQ-85" value="" style="edgeStyle=entityRelationEdgeStyle;fontSize=12;html=1;endArrow=ERzeroToOne;startArrow=ERmandOne;exitX=1;exitY=0.5;exitDx=0;exitDy=0;entryX=0;entryY=0.5;entryDx=0;entryDy=0;startFill=0;endFill=1;" edge="1" parent="1" source="S2je8SEkCSBR-PHmFtPQ-2" target="S2je8SEkCSBR-PHmFtPQ-28">
          <mxGeometry width="100" height="100" relative="1" as="geometry">
            <mxPoint x="360" y="440" as="sourcePoint" />
            <mxPoint x="460" y="340" as="targetPoint" />
          </mxGeometry>
        </mxCell>
        <mxCell id="S2je8SEkCSBR-PHmFtPQ-1" value="SAMOLOTY" style="shape=table;startSize=30;container=1;collapsible=1;childLayout=tableLayout;fixedRows=1;rowLines=0;fontStyle=1;align=center;resizeLast=1;" vertex="1" parent="1">
          <mxGeometry x="300" y="50" width="180" height="130" as="geometry" />
        </mxCell>
        <mxCell id="S2je8SEkCSBR-PHmFtPQ-2" value="" style="shape=partialRectangle;collapsible=0;dropTarget=0;pointerEvents=0;fillColor=none;top=0;left=0;bottom=1;right=0;points=[[0,0.5],[1,0.5]];portConstraint=eastwest;" vertex="1" parent="S2je8SEkCSBR-PHmFtPQ-1">
          <mxGeometry y="30" width="180" height="30" as="geometry" />
        </mxCell>
        <mxCell id="S2je8SEkCSBR-PHmFtPQ-3" value="PK" style="shape=partialRectangle;connectable=0;fillColor=none;top=0;left=0;bottom=0;right=0;fontStyle=1;overflow=hidden;" vertex="1" parent="S2je8SEkCSBR-PHmFtPQ-2">
          <mxGeometry width="30" height="30" as="geometry" />
        </mxCell>
        <mxCell id="S2je8SEkCSBR-PHmFtPQ-4" value="IDs" style="shape=partialRectangle;connectable=0;fillColor=none;top=0;left=0;bottom=0;right=0;align=left;spacingLeft=6;fontStyle=5;overflow=hidden;" vertex="1" parent="S2je8SEkCSBR-PHmFtPQ-2">
          <mxGeometry x="30" width="150" height="30" as="geometry" />
        </mxCell>
        <mxCell id="S2je8SEkCSBR-PHmFtPQ-5" value="" style="shape=partialRectangle;collapsible=0;dropTarget=0;pointerEvents=0;fillColor=none;top=0;left=0;bottom=0;right=0;points=[[0,0.5],[1,0.5]];portConstraint=eastwest;" vertex="1" parent="S2je8SEkCSBR-PHmFtPQ-1">
          <mxGeometry y="60" width="180" height="30" as="geometry" />
        </mxCell>
        <mxCell id="S2je8SEkCSBR-PHmFtPQ-6" value="FK" style="shape=partialRectangle;connectable=0;fillColor=none;top=0;left=0;bottom=0;right=0;editable=1;overflow=hidden;" vertex="1" parent="S2je8SEkCSBR-PHmFtPQ-5">
          <mxGeometry width="30" height="30" as="geometry" />
        </mxCell>
        <mxCell id="S2je8SEkCSBR-PHmFtPQ-7" value="IDbk" style="shape=partialRectangle;connectable=0;fillColor=none;top=0;left=0;bottom=0;right=0;align=left;spacingLeft=6;overflow=hidden;" vertex="1" parent="S2je8SEkCSBR-PHmFtPQ-5">
          <mxGeometry x="30" width="150" height="30" as="geometry" />
        </mxCell>
        <mxCell id="S2je8SEkCSBR-PHmFtPQ-88" value="" style="shape=partialRectangle;collapsible=0;dropTarget=0;pointerEvents=0;fillColor=none;top=0;left=0;bottom=0;right=0;points=[[0,0.5],[1,0.5]];portConstraint=eastwest;" vertex="1" parent="S2je8SEkCSBR-PHmFtPQ-1">
          <mxGeometry y="90" width="180" height="30" as="geometry" />
        </mxCell>
        <mxCell id="S2je8SEkCSBR-PHmFtPQ-89" value="FK" style="shape=partialRectangle;connectable=0;fillColor=none;top=0;left=0;bottom=0;right=0;editable=1;overflow=hidden;" vertex="1" parent="S2je8SEkCSBR-PHmFtPQ-88">
          <mxGeometry width="30" height="30" as="geometry" />
        </mxCell>
        <mxCell id="S2je8SEkCSBR-PHmFtPQ-90" value="IDl" style="shape=partialRectangle;connectable=0;fillColor=none;top=0;left=0;bottom=0;right=0;align=left;spacingLeft=6;overflow=hidden;fontStyle=0" vertex="1" parent="S2je8SEkCSBR-PHmFtPQ-88">
          <mxGeometry x="30" width="150" height="30" as="geometry" />
        </mxCell>
        <mxCell id="S2je8SEkCSBR-PHmFtPQ-66" value="LOT" style="shape=table;startSize=30;container=1;collapsible=1;childLayout=tableLayout;fixedRows=1;rowLines=0;fontStyle=1;align=center;resizeLast=1;" vertex="1" parent="1">
          <mxGeometry x="-230" y="130" width="180" height="250" as="geometry" />
        </mxCell>
        <mxCell id="S2je8SEkCSBR-PHmFtPQ-67" value="" style="shape=partialRectangle;collapsible=0;dropTarget=0;pointerEvents=0;fillColor=none;top=0;left=0;bottom=1;right=0;points=[[0,0.5],[1,0.5]];portConstraint=eastwest;" vertex="1" parent="S2je8SEkCSBR-PHmFtPQ-66">
          <mxGeometry y="30" width="180" height="30" as="geometry" />
        </mxCell>
        <mxCell id="S2je8SEkCSBR-PHmFtPQ-68" value="PK" style="shape=partialRectangle;connectable=0;fillColor=none;top=0;left=0;bottom=0;right=0;fontStyle=1;overflow=hidden;" vertex="1" parent="S2je8SEkCSBR-PHmFtPQ-67">
          <mxGeometry width="30" height="30" as="geometry" />
        </mxCell>
        <mxCell id="S2je8SEkCSBR-PHmFtPQ-69" value="IDl" style="shape=partialRectangle;connectable=0;fillColor=none;top=0;left=0;bottom=0;right=0;align=left;spacingLeft=6;fontStyle=5;overflow=hidden;" vertex="1" parent="S2je8SEkCSBR-PHmFtPQ-67">
          <mxGeometry x="30" width="150" height="30" as="geometry" />
        </mxCell>
        <mxCell id="S2je8SEkCSBR-PHmFtPQ-73" value="" style="shape=partialRectangle;collapsible=0;dropTarget=0;pointerEvents=0;fillColor=none;top=0;left=0;bottom=0;right=0;points=[[0,0.5],[1,0.5]];portConstraint=eastwest;" vertex="1" parent="S2je8SEkCSBR-PHmFtPQ-66">
          <mxGeometry y="60" width="180" height="30" as="geometry" />
        </mxCell>
        <mxCell id="S2je8SEkCSBR-PHmFtPQ-74" value="FK" style="shape=partialRectangle;connectable=0;fillColor=none;top=0;left=0;bottom=0;right=0;editable=1;overflow=hidden;" vertex="1" parent="S2je8SEkCSBR-PHmFtPQ-73">
          <mxGeometry width="30" height="30" as="geometry" />
        </mxCell>
        <mxCell id="S2je8SEkCSBR-PHmFtPQ-75" value="IDs" style="shape=partialRectangle;connectable=0;fillColor=none;top=0;left=0;bottom=0;right=0;align=left;spacingLeft=6;overflow=hidden;" vertex="1" parent="S2je8SEkCSBR-PHmFtPQ-73">
          <mxGeometry x="30" width="150" height="30" as="geometry" />
        </mxCell>
        <mxCell id="S2je8SEkCSBR-PHmFtPQ-100" style="shape=partialRectangle;collapsible=0;dropTarget=0;pointerEvents=0;fillColor=none;top=0;left=0;bottom=0;right=0;points=[[0,0.5],[1,0.5]];portConstraint=eastwest;" vertex="1" parent="S2je8SEkCSBR-PHmFtPQ-66">
          <mxGeometry y="90" width="180" height="30" as="geometry" />
        </mxCell>
        <mxCell id="S2je8SEkCSBR-PHmFtPQ-101" value="FK" style="shape=partialRectangle;connectable=0;fillColor=none;top=0;left=0;bottom=0;right=0;editable=1;overflow=hidden;" vertex="1" parent="S2je8SEkCSBR-PHmFtPQ-100">
          <mxGeometry width="30" height="30" as="geometry" />
        </mxCell>
        <mxCell id="S2je8SEkCSBR-PHmFtPQ-102" value="IDc" style="shape=partialRectangle;connectable=0;fillColor=none;top=0;left=0;bottom=0;right=0;align=left;spacingLeft=6;overflow=hidden;" vertex="1" parent="S2je8SEkCSBR-PHmFtPQ-100">
          <mxGeometry x="30" width="150" height="30" as="geometry" />
        </mxCell>
        <mxCell id="S2je8SEkCSBR-PHmFtPQ-103" style="shape=partialRectangle;collapsible=0;dropTarget=0;pointerEvents=0;fillColor=none;top=0;left=0;bottom=0;right=0;points=[[0,0.5],[1,0.5]];portConstraint=eastwest;" vertex="1" parent="S2je8SEkCSBR-PHmFtPQ-66">
          <mxGeometry y="120" width="180" height="30" as="geometry" />
        </mxCell>
        <mxCell id="S2je8SEkCSBR-PHmFtPQ-104" value="FK" style="shape=partialRectangle;connectable=0;fillColor=none;top=0;left=0;bottom=0;right=0;editable=1;overflow=hidden;" vertex="1" parent="S2je8SEkCSBR-PHmFtPQ-103">
          <mxGeometry width="30" height="30" as="geometry" />
        </mxCell>
        <mxCell id="S2je8SEkCSBR-PHmFtPQ-105" value="IDp" style="shape=partialRectangle;connectable=0;fillColor=none;top=0;left=0;bottom=0;right=0;align=left;spacingLeft=6;overflow=hidden;" vertex="1" parent="S2je8SEkCSBR-PHmFtPQ-103">
          <mxGeometry x="30" width="150" height="30" as="geometry" />
        </mxCell>
        <mxCell id="S2je8SEkCSBR-PHmFtPQ-106" style="shape=partialRectangle;collapsible=0;dropTarget=0;pointerEvents=0;fillColor=none;top=0;left=0;bottom=0;right=0;points=[[0,0.5],[1,0.5]];portConstraint=eastwest;" vertex="1" parent="S2je8SEkCSBR-PHmFtPQ-66">
          <mxGeometry y="150" width="180" height="30" as="geometry" />
        </mxCell>
        <mxCell id="S2je8SEkCSBR-PHmFtPQ-107" style="shape=partialRectangle;connectable=0;fillColor=none;top=0;left=0;bottom=0;right=0;editable=1;overflow=hidden;" vertex="1" parent="S2je8SEkCSBR-PHmFtPQ-106">
          <mxGeometry width="30" height="30" as="geometry" />
        </mxCell>
        <mxCell id="S2je8SEkCSBR-PHmFtPQ-108" value="numer" style="shape=partialRectangle;connectable=0;fillColor=none;top=0;left=0;bottom=0;right=0;align=left;spacingLeft=6;overflow=hidden;" vertex="1" parent="S2je8SEkCSBR-PHmFtPQ-106">
          <mxGeometry x="30" width="150" height="30" as="geometry" />
        </mxCell>
        <mxCell id="S2je8SEkCSBR-PHmFtPQ-114" style="shape=partialRectangle;collapsible=0;dropTarget=0;pointerEvents=0;fillColor=none;top=0;left=0;bottom=0;right=0;points=[[0,0.5],[1,0.5]];portConstraint=eastwest;" vertex="1" parent="S2je8SEkCSBR-PHmFtPQ-66">
          <mxGeometry y="180" width="180" height="30" as="geometry" />
        </mxCell>
        <mxCell id="S2je8SEkCSBR-PHmFtPQ-115" style="shape=partialRectangle;connectable=0;fillColor=none;top=0;left=0;bottom=0;right=0;editable=1;overflow=hidden;" vertex="1" parent="S2je8SEkCSBR-PHmFtPQ-114">
          <mxGeometry width="30" height="30" as="geometry" />
        </mxCell>
        <mxCell id="S2je8SEkCSBR-PHmFtPQ-116" value="data_s" style="shape=partialRectangle;connectable=0;fillColor=none;top=0;left=0;bottom=0;right=0;align=left;spacingLeft=6;overflow=hidden;" vertex="1" parent="S2je8SEkCSBR-PHmFtPQ-114">
          <mxGeometry x="30" width="150" height="30" as="geometry" />
        </mxCell>
        <mxCell id="S2je8SEkCSBR-PHmFtPQ-111" style="shape=partialRectangle;collapsible=0;dropTarget=0;pointerEvents=0;fillColor=none;top=0;left=0;bottom=0;right=0;points=[[0,0.5],[1,0.5]];portConstraint=eastwest;" vertex="1" parent="S2je8SEkCSBR-PHmFtPQ-66">
          <mxGeometry y="210" width="180" height="30" as="geometry" />
        </mxCell>
        <mxCell id="S2je8SEkCSBR-PHmFtPQ-112" style="shape=partialRectangle;connectable=0;fillColor=none;top=0;left=0;bottom=0;right=0;editable=1;overflow=hidden;" vertex="1" parent="S2je8SEkCSBR-PHmFtPQ-111">
          <mxGeometry width="30" height="30" as="geometry" />
        </mxCell>
        <mxCell id="S2je8SEkCSBR-PHmFtPQ-113" value="data_p" style="shape=partialRectangle;connectable=0;fillColor=none;top=0;left=0;bottom=0;right=0;align=left;spacingLeft=6;overflow=hidden;" vertex="1" parent="S2je8SEkCSBR-PHmFtPQ-111">
          <mxGeometry x="30" width="150" height="30" as="geometry" />
        </mxCell>
        <mxCell id="S2je8SEkCSBR-PHmFtPQ-53" value="BAZA MACIERZYSTA" style="shape=table;startSize=30;container=1;collapsible=1;childLayout=tableLayout;fixedRows=1;rowLines=0;fontStyle=1;align=center;resizeLast=1;" vertex="1" parent="1">
          <mxGeometry x="730" y="350" width="180" height="130" as="geometry" />
        </mxCell>
        <mxCell id="S2je8SEkCSBR-PHmFtPQ-54" value="" style="shape=partialRectangle;collapsible=0;dropTarget=0;pointerEvents=0;fillColor=none;top=0;left=0;bottom=1;right=0;points=[[0,0.5],[1,0.5]];portConstraint=eastwest;" vertex="1" parent="S2je8SEkCSBR-PHmFtPQ-53">
          <mxGeometry y="30" width="180" height="30" as="geometry" />
        </mxCell>
        <mxCell id="S2je8SEkCSBR-PHmFtPQ-55" value="PK" style="shape=partialRectangle;connectable=0;fillColor=none;top=0;left=0;bottom=0;right=0;fontStyle=1;overflow=hidden;" vertex="1" parent="S2je8SEkCSBR-PHmFtPQ-54">
          <mxGeometry width="30" height="30" as="geometry" />
        </mxCell>
        <mxCell id="S2je8SEkCSBR-PHmFtPQ-56" value="IDbm" style="shape=partialRectangle;connectable=0;fillColor=none;top=0;left=0;bottom=0;right=0;align=left;spacingLeft=6;fontStyle=5;overflow=hidden;" vertex="1" parent="S2je8SEkCSBR-PHmFtPQ-54">
          <mxGeometry x="30" width="150" height="30" as="geometry" />
        </mxCell>
        <mxCell id="S2je8SEkCSBR-PHmFtPQ-57" value="" style="shape=partialRectangle;collapsible=0;dropTarget=0;pointerEvents=0;fillColor=none;top=0;left=0;bottom=0;right=0;points=[[0,0.5],[1,0.5]];portConstraint=eastwest;" vertex="1" parent="S2je8SEkCSBR-PHmFtPQ-53">
          <mxGeometry y="60" width="180" height="30" as="geometry" />
        </mxCell>
        <mxCell id="S2je8SEkCSBR-PHmFtPQ-58" value="FK" style="shape=partialRectangle;connectable=0;fillColor=none;top=0;left=0;bottom=0;right=0;editable=1;overflow=hidden;" vertex="1" parent="S2je8SEkCSBR-PHmFtPQ-57">
          <mxGeometry width="30" height="30" as="geometry" />
        </mxCell>
        <mxCell id="S2je8SEkCSBR-PHmFtPQ-59" value="IDp" style="shape=partialRectangle;connectable=0;fillColor=none;top=0;left=0;bottom=0;right=0;align=left;spacingLeft=6;overflow=hidden;" vertex="1" parent="S2je8SEkCSBR-PHmFtPQ-57">
          <mxGeometry x="30" width="150" height="30" as="geometry" />
        </mxCell>
        <mxCell id="S2je8SEkCSBR-PHmFtPQ-60" value="" style="shape=partialRectangle;collapsible=0;dropTarget=0;pointerEvents=0;fillColor=none;top=0;left=0;bottom=0;right=0;points=[[0,0.5],[1,0.5]];portConstraint=eastwest;" vertex="1" parent="S2je8SEkCSBR-PHmFtPQ-53">
          <mxGeometry y="90" width="180" height="30" as="geometry" />
        </mxCell>
        <mxCell id="S2je8SEkCSBR-PHmFtPQ-61" value="FK" style="shape=partialRectangle;connectable=0;fillColor=none;top=0;left=0;bottom=0;right=0;editable=1;overflow=hidden;" vertex="1" parent="S2je8SEkCSBR-PHmFtPQ-60">
          <mxGeometry width="30" height="30" as="geometry" />
        </mxCell>
        <mxCell id="S2je8SEkCSBR-PHmFtPQ-62" value="IDc" style="shape=partialRectangle;connectable=0;fillColor=none;top=0;left=0;bottom=0;right=0;align=left;spacingLeft=6;overflow=hidden;" vertex="1" parent="S2je8SEkCSBR-PHmFtPQ-60">
          <mxGeometry x="30" width="150" height="30" as="geometry" />
        </mxCell>
        <mxCell id="S2je8SEkCSBR-PHmFtPQ-27" value="BAZA KONSERWCYJNA" style="shape=table;startSize=30;container=1;collapsible=1;childLayout=tableLayout;fixedRows=1;rowLines=0;fontStyle=1;align=center;resizeLast=1;" vertex="1" parent="1">
          <mxGeometry x="640" y="180" width="180" height="100" as="geometry" />
        </mxCell>
        <mxCell id="S2je8SEkCSBR-PHmFtPQ-28" value="" style="shape=partialRectangle;collapsible=0;dropTarget=0;pointerEvents=0;fillColor=none;top=0;left=0;bottom=1;right=0;points=[[0,0.5],[1,0.5]];portConstraint=eastwest;" vertex="1" parent="S2je8SEkCSBR-PHmFtPQ-27">
          <mxGeometry y="30" width="180" height="30" as="geometry" />
        </mxCell>
        <mxCell id="S2je8SEkCSBR-PHmFtPQ-29" value="PK" style="shape=partialRectangle;connectable=0;fillColor=none;top=0;left=0;bottom=0;right=0;fontStyle=1;overflow=hidden;" vertex="1" parent="S2je8SEkCSBR-PHmFtPQ-28">
          <mxGeometry width="30" height="30" as="geometry" />
        </mxCell>
        <mxCell id="S2je8SEkCSBR-PHmFtPQ-30" value="IDbk" style="shape=partialRectangle;connectable=0;fillColor=none;top=0;left=0;bottom=0;right=0;align=left;spacingLeft=6;fontStyle=5;overflow=hidden;" vertex="1" parent="S2je8SEkCSBR-PHmFtPQ-28">
          <mxGeometry x="30" width="150" height="30" as="geometry" />
        </mxCell>
        <mxCell id="S2je8SEkCSBR-PHmFtPQ-31" value="" style="shape=partialRectangle;collapsible=0;dropTarget=0;pointerEvents=0;fillColor=none;top=0;left=0;bottom=0;right=0;points=[[0,0.5],[1,0.5]];portConstraint=eastwest;" vertex="1" parent="S2je8SEkCSBR-PHmFtPQ-27">
          <mxGeometry y="60" width="180" height="30" as="geometry" />
        </mxCell>
        <mxCell id="S2je8SEkCSBR-PHmFtPQ-32" value="FK" style="shape=partialRectangle;connectable=0;fillColor=none;top=0;left=0;bottom=0;right=0;editable=1;overflow=hidden;" vertex="1" parent="S2je8SEkCSBR-PHmFtPQ-31">
          <mxGeometry width="30" height="30" as="geometry" />
        </mxCell>
        <mxCell id="S2je8SEkCSBR-PHmFtPQ-33" value="IDs" style="shape=partialRectangle;connectable=0;fillColor=none;top=0;left=0;bottom=0;right=0;align=left;spacingLeft=6;overflow=hidden;" vertex="1" parent="S2je8SEkCSBR-PHmFtPQ-31">
          <mxGeometry x="30" width="150" height="30" as="geometry" />
        </mxCell>
        <mxCell id="S2je8SEkCSBR-PHmFtPQ-109" value="" style="edgeStyle=elbowEdgeStyle;fontSize=12;html=1;endArrow=ERoneToMany;startArrow=ERoneToMany;entryX=1;entryY=0.5;entryDx=0;entryDy=0;exitX=0;exitY=0.5;exitDx=0;exitDy=0;" edge="1" parent="1" source="S2je8SEkCSBR-PHmFtPQ-50" target="S2je8SEkCSBR-PHmFtPQ-106">
          <mxGeometry width="100" height="100" relative="1" as="geometry">
            <mxPoint x="360" y="440" as="sourcePoint" />
            <mxPoint x="460" y="340" as="targetPoint" />
          </mxGeometry>
        </mxCell>
        <mxCell id="S2je8SEkCSBR-PHmFtPQ-110" value="" style="edgeStyle=elbowEdgeStyle;fontSize=12;html=1;endArrow=ERoneToMany;startArrow=ERoneToMany;entryX=0.25;entryY=1;entryDx=0;entryDy=0;exitX=0.25;exitY=0;exitDx=0;exitDy=0;elbow=vertical;" edge="1" parent="1" source="S2je8SEkCSBR-PHmFtPQ-14" target="S2je8SEkCSBR-PHmFtPQ-66">
          <mxGeometry width="100" height="100" relative="1" as="geometry">
            <mxPoint x="360" y="500" as="sourcePoint" />
            <mxPoint x="460" y="400" as="targetPoint" />
          </mxGeometry>
        </mxCell>
        <mxCell id="S2je8SEkCSBR-PHmFtPQ-14" value="CzÅ‚onkowie zaÅ‚ogi" style="shape=table;startSize=30;container=1;collapsible=1;childLayout=tableLayout;fixedRows=1;rowLines=0;fontStyle=1;align=center;resizeLast=1;" vertex="1" parent="1">
          <mxGeometry x="-230" y="640" width="180" height="130" as="geometry" />
        </mxCell>
        <mxCell id="S2je8SEkCSBR-PHmFtPQ-15" value="" style="shape=partialRectangle;collapsible=0;dropTarget=0;pointerEvents=0;fillColor=none;top=0;left=0;bottom=1;right=0;points=[[0,0.5],[1,0.5]];portConstraint=eastwest;" vertex="1" parent="S2je8SEkCSBR-PHmFtPQ-14">
          <mxGeometry y="30" width="180" height="30" as="geometry" />
        </mxCell>
        <mxCell id="S2je8SEkCSBR-PHmFtPQ-16" value="PK" style="shape=partialRectangle;connectable=0;fillColor=none;top=0;left=0;bottom=0;right=0;fontStyle=1;overflow=hidden;" vertex="1" parent="S2je8SEkCSBR-PHmFtPQ-15">
          <mxGeometry width="30" height="30" as="geometry" />
        </mxCell>
        <mxCell id="S2je8SEkCSBR-PHmFtPQ-17" value="IDc" style="shape=partialRectangle;connectable=0;fillColor=none;top=0;left=0;bottom=0;right=0;align=left;spacingLeft=6;fontStyle=5;overflow=hidden;" vertex="1" parent="S2je8SEkCSBR-PHmFtPQ-15">
          <mxGeometry x="30" width="150" height="30" as="geometry" />
        </mxCell>
        <mxCell id="S2je8SEkCSBR-PHmFtPQ-18" value="" style="shape=partialRectangle;collapsible=0;dropTarget=0;pointerEvents=0;fillColor=none;top=0;left=0;bottom=0;right=0;points=[[0,0.5],[1,0.5]];portConstraint=eastwest;" vertex="1" parent="S2je8SEkCSBR-PHmFtPQ-14">
          <mxGeometry y="60" width="180" height="30" as="geometry" />
        </mxCell>
        <mxCell id="S2je8SEkCSBR-PHmFtPQ-19" value="" style="shape=partialRectangle;connectable=0;fillColor=none;top=0;left=0;bottom=0;right=0;editable=1;overflow=hidden;" vertex="1" parent="S2je8SEkCSBR-PHmFtPQ-18">
          <mxGeometry width="30" height="30" as="geometry" />
        </mxCell>
        <mxCell id="S2je8SEkCSBR-PHmFtPQ-20" value="imie" style="shape=partialRectangle;connectable=0;fillColor=none;top=0;left=0;bottom=0;right=0;align=left;spacingLeft=6;overflow=hidden;" vertex="1" parent="S2je8SEkCSBR-PHmFtPQ-18">
          <mxGeometry x="30" width="150" height="30" as="geometry" />
        </mxCell>
        <mxCell id="S2je8SEkCSBR-PHmFtPQ-21" value="" style="shape=partialRectangle;collapsible=0;dropTarget=0;pointerEvents=0;fillColor=none;top=0;left=0;bottom=0;right=0;points=[[0,0.5],[1,0.5]];portConstraint=eastwest;" vertex="1" parent="S2je8SEkCSBR-PHmFtPQ-14">
          <mxGeometry y="90" width="180" height="30" as="geometry" />
        </mxCell>
        <mxCell id="S2je8SEkCSBR-PHmFtPQ-22" value="" style="shape=partialRectangle;connectable=0;fillColor=none;top=0;left=0;bottom=0;right=0;editable=1;overflow=hidden;" vertex="1" parent="S2je8SEkCSBR-PHmFtPQ-21">
          <mxGeometry width="30" height="30" as="geometry" />
        </mxCell>
        <mxCell id="S2je8SEkCSBR-PHmFtPQ-23" value="nazwisko" style="shape=partialRectangle;connectable=0;fillColor=none;top=0;left=0;bottom=0;right=0;align=left;spacingLeft=6;overflow=hidden;" vertex="1" parent="S2je8SEkCSBR-PHmFtPQ-21">
          <mxGeometry x="30" width="150" height="30" as="geometry" />
        </mxCell>
        <mxCell id="S2je8SEkCSBR-PHmFtPQ-117" value="jest wykonywany" style="text;html=1;align=center;verticalAlign=middle;resizable=0;points=[];autosize=1;" vertex="1" parent="1">
          <mxGeometry x="80" y="120" width="110" height="20" as="geometry" />
        </mxCell>
        <mxCell id="S2je8SEkCSBR-PHmFtPQ-118" value="wykonuje" style="text;html=1;align=center;verticalAlign=middle;resizable=0;points=[];autosize=1;" vertex="1" parent="1">
          <mxGeometry x="100" y="170" width="70" height="20" as="geometry" />
        </mxCell>
        <mxCell id="S2je8SEkCSBR-PHmFtPQ-119" value="konserwuje" style="text;html=1;align=center;verticalAlign=middle;resizable=0;points=[];autosize=1;rotation=56;" vertex="1" parent="1">
          <mxGeometry x="540" y="140" width="80" height="20" as="geometry" />
        </mxCell>
        <mxCell id="S2je8SEkCSBR-PHmFtPQ-120" value="jest konserwowany" style="text;html=1;align=center;verticalAlign=middle;resizable=0;points=[];autosize=1;rotation=56;" vertex="1" parent="1">
          <mxGeometry x="480" y="160" width="120" height="20" as="geometry" />
        </mxCell>
        <mxCell id="S2je8SEkCSBR-PHmFtPQ-121" value="ma ich zarejestrowanych" style="text;html=1;align=center;verticalAlign=middle;resizable=0;points=[];autosize=1;" vertex="1" parent="1">
          <mxGeometry x="315" y="530" width="150" height="20" as="geometry" />
        </mxCell>
        <mxCell id="S2je8SEkCSBR-PHmFtPQ-122" value="sÄ… zarejetrowani" style="text;html=1;align=center;verticalAlign=middle;resizable=0;points=[];autosize=1;" vertex="1" parent="1">
          <mxGeometry x="335" y="575" width="110" height="20" as="geometry" />
        </mxCell>
        <mxCell id="S2je8SEkCSBR-PHmFtPQ-124" value="jest zarejestrowany" style="text;html=1;align=center;verticalAlign=middle;resizable=0;points=[];autosize=1;" vertex="1" parent="1">
          <mxGeometry x="420" y="400" width="120" height="20" as="geometry" />
        </mxCell>
        <mxCell id="S2je8SEkCSBR-PHmFtPQ-125" value="ma zarejestrowanego" style="text;html=1;align=center;verticalAlign=middle;resizable=0;points=[];autosize=1;" vertex="1" parent="1">
          <mxGeometry x="415" y="430" width="130" height="20" as="geometry" />
        </mxCell>
        <mxCell id="S2je8SEkCSBR-PHmFtPQ-126" value="jest wykonywany przez" style="text;html=1;align=center;verticalAlign=middle;resizable=0;points=[];autosize=1;rotation=90;" vertex="1" parent="1">
          <mxGeometry x="-20" y="360" width="140" height="20" as="geometry" />
        </mxCell>
        <mxCell id="S2je8SEkCSBR-PHmFtPQ-127" value="&lt;p style=&quot;line-height: 120%&quot;&gt;wykonuje&lt;/p&gt;" style="text;html=1;align=center;verticalAlign=middle;resizable=0;points=[];autosize=1;rotation=90;" vertex="1" parent="1">
          <mxGeometry x="-30" y="340" width="70" height="40" as="geometry" />
        </mxCell>
        <mxCell id="S2je8SEkCSBR-PHmFtPQ-128" value="wykonujÄ…" style="text;html=1;align=center;verticalAlign=middle;resizable=0;points=[];autosize=1;rotation=270;" vertex="1" parent="1">
          <mxGeometry x="-240" y="500" width="70" height="20" as="geometry" />
        </mxCell>
        <mxCell id="S2je8SEkCSBR-PHmFtPQ-129" value="jest wykonywany" style="text;html=1;align=center;verticalAlign=middle;resizable=0;points=[];autosize=1;rotation=-90;" vertex="1" parent="1">
          <mxGeometry x="-215" y="500" width="110" height="20" as="geometry" />
        </mxCell>
      </root>
    </mxGraphModel>
  </diagram>
</mxfile>
